<svg width="80" height="80" viewBox="0 0 80 80" fill="none" xmlns="http://www.w3.org/2000/svg">
    <path fill-rule="evenodd" clip-rule="evenodd"
        d="M40 80C62.0914 80 80 62.0914 80 40C80 17.9086 62.0914 0 40 0C17.9086 0 0 17.9086 0 40C0 62.0914 17.9086 80 40 80ZM37.1444 61.8412L31.0809 61.8412C29.293 61.8412 27.8354 61.1416 26.7083 59.7423C25.6005 58.343 24.9883 56.1178 24.8717 53.0667L24.6385 44.3505L24.0264 25.6355L23.8806 24.2654L28.4282 17.9104L28.2824 48.6357C28.2824 50.3654 28.5448 51.7938 29.0695 52.9209C29.6137 54.0287 30.8574 54.67 32.8008 54.8449L37.1444 54.8449L37.8731 54.8449L49.621 54.8449C51.1175 54.6506 51.8948 54.2716 51.9531 53.708C51.7199 52.6391 51.2826 51.4245 50.6413 50.0641C50.0194 48.6843 49.5336 47.6252 49.1838 46.8867C48.8534 46.1287 48.7562 45.536 48.8923 45.1084C48.8923 44.9724 49.2906 43.9813 50.0874 42.135C50.8842 40.2888 51.5256 39.2296 52.0114 38.9576C53.5467 42.3197 54.499 45.2542 54.8682 47.7612C55.218 49.6074 54.7128 52.4448 53.3524 56.2733C51.992 59.9852 49.9806 61.8412 47.3181 61.8412L37.8731 61.8412L37.1444 61.8412ZM55.7428 23.7698C55.2569 27.1708 54.7225 29.0948 54.1395 29.5417C52.8568 30.3774 50.962 31.4074 48.455 32.6318C45.7148 33.9727 42.1195 35.6538 37.6691 37.6749C38.0578 35.8287 38.7379 34.342 39.7097 33.2148C40.4093 32.4763 40.8368 31.9613 40.9923 31.6698C40.8757 31.5337 40.7008 31.2131 40.4676 30.7078C40.2538 30.1831 40.1469 29.5612 40.1469 28.8421C40.1664 28.1231 40.3898 27.0056 40.8174 25.4897C41.3615 23.2937 42.0806 21.6904 42.9746 20.6798C43.888 19.6498 44.8402 18.9696 45.8314 18.6392C46.4921 18.3088 47.3472 18.1242 48.3967 18.0854C48.7076 18.0465 48.9894 18.0271 49.2421 18.0271C50.1749 18.0271 50.6802 18.2311 50.7579 18.6392C50.3887 20.1551 49.8251 21.1754 49.0672 21.7001C48.3481 22.905 47.7165 23.488 47.1723 23.4492C46.8614 23.4297 46.6476 23.4394 46.531 23.4783C46.4144 23.5172 46.1909 23.5269 45.8605 23.5075C43.7811 23.9933 42.6053 24.9067 42.3333 26.2477C42.858 27.6275 44.5196 28.1522 47.3181 27.8218C48.7951 27.4137 50.1166 26.889 51.2826 26.2477C52.4487 25.7229 53.9354 24.897 55.7428 23.7698Z"
        fill="#454BB1" />
</svg>